<?xml version="1.0" encoding="utf-8"?>
<!-- Generator: Adobe Illustrator 16.0.0, SVG Export Plug-In . SVG Version: 6.00 Build 0)  -->
<!DOCTYPE svg PUBLIC "-//W3C//DTD SVG 1.1//EN" "http://www.w3.org/Graphics/SVG/1.1/DTD/svg11.dtd">
<svg version="1.1" xmlns="http://www.w3.org/2000/svg" xmlns:xlink="http://www.w3.org/1999/xlink" x="0px" y="0px" width="288px"
	 height="288px" viewBox="0 0 288 288" enable-background="new 0 0 288 288" xml:space="preserve">
<g id="begin">
	<g>
		<path fill="#FFFFFF" stroke="#808285" stroke-width="3.0972" stroke-miterlimit="10" d="M145.274,138.315
			c3.125,4.416,4.961,9.806,4.961,15.629c0,14.97-12.132,27.103-27.105,27.103c-14.959,0-27.096-12.133-27.096-27.103
			c0-14.967,12.137-27.1,27.096-27.1c7-0.002,13.377,2.65,18.185,7.003"/>
		<path fill="#FFFFFF" stroke="#808285" stroke-width="3.0972" stroke-miterlimit="10" d="M136.49,148.404
			c0.708,1.707,1.102,3.576,1.102,5.54c0,7.983-6.478,14.454-14.462,14.454c-7.976,0-14.451-6.471-14.451-14.454
			c0-7.982,6.475-14.449,14.451-14.449c3.611,0,6.911,1.323,9.45,3.504"/>
		<g>
			<polygon fill="#808285" points="128.001,144.963 123.235,156.494 134.875,151.84 			"/>
			<path fill="#808285" d="M132.557,147.9l3.199,3.195l42.875-43.829c0.041-0.036,0.082-0.072,0.123-0.105
				c1.591-1.596,1.709-4.09,0.379-5.834L132.557,147.9z"/>
			<path fill="#808285" d="M128.646,143.989l3.138,3.134l46.573-46.579c-1.747-1.392-4.281-1.296-5.901,0.319
				c-0.039,0.039-0.07,0.084-0.113,0.123L128.646,143.989z"/>
		</g>
	</g>
</g>
<g id="present" display="none">
	<g display="inline">
		<polygon fill="#FFFFFF" stroke="#808285" stroke-width="2" stroke-miterlimit="10" points="92.79,139.399 133.463,118.514 
			194.471,131.705 131.264,170.728 		"/>
		<polygon fill="none" stroke="#808285" stroke-miterlimit="10" points="94.165,149.568 134.837,128.683 195.845,141.874 
			132.639,180.896 		"/>
		<polygon fill="#FFFFFF" stroke="#808285" stroke-width="2" stroke-miterlimit="10" points="94.164,129.781 134.836,108.896 
			195.844,122.086 132.638,161.109 		"/>
	</g>
</g>
<g id="perspective" display="none">
	<g display="inline">
		<path fill="#FFFFFF" stroke="#808285" stroke-width="1.5" stroke-miterlimit="10" d="M137.176,142.279"/>
		<rect x="121.097" y="132.03" fill-rule="evenodd" clip-rule="evenodd" fill="none" width="30.774" height="21.748"/>
		<text transform="matrix(1 0 0 1 124.4839 153.5146)" fill="#808285" font-family="'Baskerville-Italic'" font-size="32">H</text>
		<polyline fill="none" stroke="#D1D3D4" stroke-miterlimit="10" points="89.93,158.741 66.068,144.964 90.31,130.467 		"/>
		<path fill="#FFFFFF" stroke="#808285" stroke-width="1.5" stroke-miterlimit="10" d="M136.842,185.825"/>
		<polyline fill="none" stroke="#D1D3D4" stroke-miterlimit="10" points="183.572,130.951 207.842,144.964 183.658,158.927 		"/>
		<polygon fill="none" stroke="#808285" stroke-width="2" stroke-miterlimit="10" points="136.842,185.825 90.257,158.914 
			90.122,157.195 90.122,131.509 90.164,130.654 136.842,104.103 137.068,104.103 183.32,130.82 183.789,132.133 183.789,157.695 
			183.289,159.07 137.068,185.825 		"/>
		
			<line fill="#FFFFFF" stroke="#808285" stroke-width="2" stroke-miterlimit="10" x1="137.078" y1="123.528" x2="137.078" y2="103.967"/>
		<line fill="none" stroke="#D1D3D4" stroke-miterlimit="10" x1="55.122" y1="144.964" x2="67.122" y2="144.964"/>
		<line fill="none" stroke="#D1D3D4" stroke-miterlimit="10" x1="207.122" y1="144.964" x2="219.122" y2="144.964"/>
		<g>
			<rect x="46.789" y="149.778" fill="none" width="13.5" height="8.5"/>
			<text transform="matrix(1 0 0 1 50.7886 157.1631)" fill="#808285" font-family="'Baskerville-Italic'" font-size="11">1</text>
			<rect x="42.788" y="128.027" fill="none" width="14" height="23.333"/>
			<text transform="matrix(1 0 0 1 44.124 149.5117)" fill="#808285" font-family="'Baskerville-Italic'" font-size="32">v</text>
		</g>
		<g>
			<rect x="224.789" y="149.778" fill="none" width="14.25" height="8.583"/>
			<text transform="matrix(1 0 0 1 229.1641 157.1631)" fill="#808285" font-family="'Baskerville-Italic'" font-size="11">2</text>
			<rect x="219.455" y="128.027" fill="none" width="14" height="23.333"/>
			<text transform="matrix(1 0 0 1 220.791 149.5117)" fill="#808285" font-family="'Baskerville-Italic'" font-size="32">v</text>
		</g>
		
			<line fill="#FFFFFF" stroke="#808285" stroke-width="2" stroke-miterlimit="10" x1="136.912" y1="185.695" x2="136.912" y2="159.695"/>
	</g>
</g>
<g id="observce" display="none">
	<path display="inline" fill="none" stroke="#808285" stroke-width="2" stroke-miterlimit="10" d="M159.227,146.978
		c0,8.32-6.75,15.064-15.068,15.064c-8.321,0-15.068-6.744-15.068-15.064c0-8.322,6.747-15.064,15.068-15.064
		C152.477,131.913,159.227,138.655,159.227,146.978z"/>
	
		<line display="inline" fill="none" stroke="#808285" stroke-width="2" stroke-miterlimit="10" x1="144.17" y1="144.255" x2="144.17" y2="88.073"/>
	<circle display="inline" fill="#808285" cx="144.157" cy="146.978" r="8.47"/>
	<g display="inline">
		<g>
			<g>
				<g>
					
						<rect x="95.744" y="191.449" transform="matrix(0.7071 0.7071 -0.7071 0.7071 165.5837 -11.4664)" fill="#808285" width="1.777" height="5.389"/>
					
						<rect x="101.42" y="185.774" transform="matrix(0.7071 0.7071 -0.7071 0.7071 163.233 -17.1419)" fill="#808285" width="1.777" height="5.39"/>
					
						<rect x="107.095" y="180.099" transform="matrix(0.7071 0.7071 -0.7071 0.7071 160.8822 -22.817)" fill="#808285" width="1.777" height="5.389"/>
					
						<rect x="112.771" y="174.423" transform="matrix(0.7071 0.7071 -0.7071 0.7071 158.5313 -28.4931)" fill="#808285" width="1.777" height="5.389"/>
					
						<rect x="118.446" y="168.747" transform="matrix(0.7071 0.7071 -0.7071 0.7071 156.1804 -34.1681)" fill="#808285" width="1.777" height="5.39"/>
					
						<rect x="124.123" y="163.072" transform="matrix(0.7071 0.7071 -0.7071 0.7071 153.8293 -39.8445)" fill="#808285" width="1.777" height="5.389"/>
					
						<rect x="129.797" y="157.398" transform="matrix(0.7071 0.7071 -0.7071 0.7071 151.4788 -45.5187)" fill="#808285" width="1.777" height="5.388"/>
				</g>
			</g>
		</g>
	</g>
	<g display="inline">
		<g>
			<g>
				<g>
					
						<rect x="191.229" y="190.175" transform="matrix(0.7074 -0.7068 0.7068 0.7074 -80.1093 192.2321)" fill="#808285" width="1.777" height="5.39"/>
					
						<rect x="185.554" y="184.499" transform="matrix(0.7071 -0.7071 0.7071 0.7071 -77.7582 186.6628)" fill="#808285" width="1.777" height="5.389"/>
					
						<rect x="179.879" y="178.825" transform="matrix(0.7071 -0.7071 0.7071 0.7071 -75.4076 180.988)" fill="#808285" width="1.777" height="5.389"/>
					
						<rect x="174.203" y="173.149" transform="matrix(0.7071 -0.7071 0.7071 0.7071 -73.0564 175.3118)" fill="#808285" width="1.777" height="5.388"/>
					
						<rect x="168.529" y="167.473" transform="matrix(0.7071 -0.7071 0.7071 0.7071 -70.7054 169.6371)" fill="#808285" width="1.777" height="5.389"/>
					
						<rect x="162.852" y="161.798" transform="matrix(0.7071 -0.7071 0.7071 0.7071 -68.3545 163.961)" fill="#808285" width="1.777" height="5.388"/>
					
						<rect x="157.179" y="156.123" transform="matrix(0.7071 -0.7071 0.7071 0.7071 -66.0036 158.2869)" fill="#808285" width="1.777" height="5.388"/>
				</g>
			</g>
		</g>
	</g>
	<g display="inline">
		<g>
			<g>
				<g>
					<rect x="143.306" y="206.4" fill="#808285" width="1.778" height="4.821"/>
					<rect x="143.306" y="199.22" fill="#808285" width="1.778" height="4.821"/>
					<rect x="143.306" y="192.039" fill="#808285" width="1.778" height="4.822"/>
					<rect x="143.306" y="184.858" fill="#808285" width="1.778" height="4.82"/>
					<rect x="143.306" y="177.678" fill="#808285" width="1.778" height="4.821"/>
					<rect x="143.306" y="170.496" fill="#808285" width="1.778" height="4.82"/>
					<rect x="143.306" y="163.316" fill="#808285" width="1.778" height="4.821"/>
				</g>
			</g>
		</g>
	</g>
	<circle display="inline" fill="#808285" cx="95.15" cy="196.14" r="8.471"/>
	<circle display="inline" fill="#808285" cx="144.17" cy="204.937" r="8.47"/>
	<circle display="inline" fill="#808285" cx="194.301" cy="194.899" r="8.471"/>
	<path display="inline" fill="#808285" d="M154.461,86c0,5.682-4.609,10.289-10.291,10.289c-5.684,0-10.291-4.607-10.291-10.289
		c0-5.686,4.607-10.289,10.291-10.289C149.852,75.711,154.461,80.314,154.461,86z"/>
</g>
<g id="perceive" display="none">
	<g display="inline">
		<g>
			<g>
				<g>
					
						<rect x="132.754" y="147.062" transform="matrix(-0.7055 -0.7088 0.7088 -0.7055 122.0796 349.4037)" fill="#808285" width="1.777" height="4.546"/>
					
						<rect x="127.956" y="151.837" transform="matrix(-0.7055 -0.7088 0.7088 -0.7055 110.5121 354.1473)" fill="#808285" width="1.777" height="4.546"/>
					
						<rect x="123.158" y="156.613" transform="matrix(-0.7055 -0.7088 0.7088 -0.7055 98.9453 358.8902)" fill="#808285" width="1.777" height="4.545"/>
					
						<rect x="118.359" y="161.389" transform="matrix(-0.7053 -0.7089 0.7089 -0.7053 87.3372 363.6278)" fill="#808285" width="1.777" height="4.544"/>
					
						<rect x="113.561" y="166.163" transform="matrix(-0.7055 -0.7088 0.7088 -0.7055 75.8094 368.377)" fill="#808285" width="1.777" height="4.545"/>
					
						<rect x="108.762" y="170.94" transform="matrix(-0.7055 -0.7088 0.7088 -0.7055 64.2396 373.1215)" fill="#808285" width="1.777" height="4.545"/>
					
						<rect x="103.965" y="175.714" transform="matrix(-0.7055 -0.7088 0.7088 -0.7055 52.674 377.8639)" fill="#808285" width="1.777" height="4.545"/>
				</g>
			</g>
		</g>
	</g>
	<g display="inline">
		<g>
			<g>
				<g>
					
						<rect x="186.335" y="93.325" transform="matrix(-0.7077 -0.7066 0.7066 -0.7077 252.1673 295.5346)" fill="#808285" width="1.777" height="4.549"/>
					
						<rect x="181.548" y="98.118" transform="matrix(-0.7074 -0.7068 0.7068 -0.7074 240.5269 300.3609)" fill="#808285" width="1.777" height="4.549"/>
					
						<rect x="176.76" y="102.912" transform="matrix(-0.7077 -0.7066 0.7066 -0.7077 229.042 305.1416)" fill="#808285" width="1.777" height="4.55"/>
					
						<rect x="171.971" y="107.707" transform="matrix(-0.7075 -0.7067 0.7067 -0.7075 217.4383 309.9541)" fill="#808285" width="1.778" height="4.549"/>
					
						<rect x="167.184" y="112.5" transform="matrix(-0.7077 -0.7066 0.7066 -0.7077 205.9144 314.7491)" fill="#808285" width="1.777" height="4.55"/>
					
						<rect x="162.395" y="117.296" transform="matrix(-0.7077 -0.7066 0.7066 -0.7077 194.3495 319.5534)" fill="#808285" width="1.777" height="4.549"/>
					
						<rect x="157.608" y="122.089" transform="matrix(-0.7077 -0.7066 0.7066 -0.7077 182.7881 324.3562)" fill="#808285" width="1.777" height="4.548"/>
				</g>
			</g>
		</g>
	</g>
	<g display="inline">
		<g>
			<g>
				<g>
					
						<rect x="156.034" y="146.861" transform="matrix(-0.7088 0.7055 -0.7055 -0.7088 373.3536 144.1398)" fill="#808285" width="1.777" height="4.557"/>
					
						<rect x="160.822" y="151.67" transform="matrix(-0.7088 0.7055 -0.7055 -0.7088 384.9282 148.9803)" fill="#808285" width="1.777" height="4.557"/>
					
						<rect x="165.61" y="156.48" transform="matrix(-0.7085 0.7057 -0.7057 -0.7085 396.5001 153.7321)" fill="#808285" width="1.777" height="4.557"/>
					
						<rect x="170.398" y="161.29" transform="matrix(-0.7088 0.7055 -0.7055 -0.7088 408.0781 158.6632)" fill="#808285" width="1.777" height="4.557"/>
					
						<rect x="175.186" y="166.1" transform="matrix(-0.7088 0.7055 -0.7055 -0.7088 419.651 163.5044)" fill="#808285" width="1.777" height="4.557"/>
					
						<rect x="179.975" y="170.911" transform="matrix(-0.7088 0.7055 -0.7055 -0.7088 431.228 168.346)" fill="#808285" width="1.777" height="4.557"/>
					
						<rect x="184.762" y="175.72" transform="matrix(-0.7088 0.7055 -0.7055 -0.7088 442.8006 173.1869)" fill="#808285" width="1.776" height="4.556"/>
				</g>
			</g>
		</g>
	</g>
	<g display="inline">
		<g>
			<g>
				<g>
					
						<rect x="102.382" y="93.36" transform="matrix(-0.7082 0.706 -0.706 -0.7082 243.9247 90.4521)" fill="#808285" width="1.777" height="4.546"/>
					
						<rect x="107.163" y="98.154" transform="matrix(-0.7081 0.7061 -0.7061 -0.7081 255.4756 95.237)" fill="#808285" width="1.777" height="4.546"/>
					
						<rect x="111.943" y="102.948" transform="matrix(-0.7081 0.7061 -0.7061 -0.7081 267.0259 100.0497)" fill="#808285" width="1.778" height="4.546"/>
					
						<rect x="116.725" y="107.743" transform="matrix(-0.7082 0.706 -0.706 -0.7082 278.5796 104.8938)" fill="#808285" width="1.777" height="4.545"/>
					
						<rect x="121.505" y="112.536" transform="matrix(-0.7082 0.706 -0.706 -0.7082 290.1299 109.707)" fill="#808285" width="1.777" height="4.546"/>
					
						<rect x="126.287" y="117.332" transform="matrix(-0.7081 0.7061 -0.7061 -0.7081 301.6829 114.4881)" fill="#808285" width="1.777" height="4.545"/>
					
						<rect x="131.067" y="122.125" transform="matrix(-0.7082 0.706 -0.706 -0.7082 313.2326 119.3348)" fill="#808285" width="1.777" height="4.546"/>
				</g>
			</g>
		</g>
	</g>
	<path display="inline" fill="#808285" d="M192.808,180.638c0,2.607-2.113,4.723-4.721,4.723c-2.605,0-4.723-2.115-4.723-4.723
		c0-2.611,2.117-4.721,4.723-4.721C190.694,175.917,192.808,178.026,192.808,180.638z"/>
	<path display="inline" fill="#808285" d="M192.808,94.317c0,2.605-2.113,4.719-4.721,4.719s-4.723-2.113-4.723-4.719
		c0-2.609,2.115-4.721,4.723-4.721S192.808,91.708,192.808,94.317z"/>
	<path display="inline" fill="#808285" d="M106.763,94.317c0,2.605-2.113,4.719-4.723,4.719c-2.605,0-4.721-2.113-4.721-4.719
		c0-2.611,2.115-4.723,4.721-4.723C104.649,89.595,106.763,91.706,106.763,94.317z"/>
	<path display="inline" fill="#808285" d="M106.763,180.638c0,2.607-2.113,4.723-4.723,4.723c-2.605,0-4.721-2.115-4.721-4.723
		c0-2.611,2.115-4.721,4.721-4.721C104.649,175.917,106.763,178.026,106.763,180.638z"/>
	<path display="inline" fill="#808285" d="M155.448,76.667c0,5.682-4.609,10.289-10.291,10.289c-5.684,0-10.291-4.607-10.291-10.289
		c0-5.686,4.607-10.289,10.291-10.289C150.839,66.378,155.448,70.981,155.448,76.667z"/>
	<path display="inline" fill="#808285" d="M155.448,211.843c0,5.682-4.609,10.289-10.291,10.289
		c-5.684,0-10.291-4.607-10.291-10.289c0-5.688,4.607-10.289,10.291-10.289C150.839,201.554,155.448,206.155,155.448,211.843z"/>
	<path display="inline" fill="none" stroke="#808285" stroke-width="2" stroke-miterlimit="10" d="M159.546,137.413
		c0,7.945-6.443,14.385-14.389,14.385s-14.389-6.439-14.389-14.385c0-7.947,6.443-14.387,14.389-14.387
		S159.546,129.466,159.546,137.413z"/>
	<path display="inline" fill="#808285" d="M153.247,137.413c0,4.467-3.623,8.086-8.088,8.086c-4.467,0-8.092-3.619-8.092-8.086
		c0-4.469,3.625-8.086,8.092-8.086C149.624,129.327,153.247,132.944,153.247,137.413z"/>
	
		<line display="inline" fill="none" stroke="#808285" stroke-width="2" stroke-miterlimit="10" x1="145.157" y1="152.249" x2="145.157" y2="210.849"/>
	
		<line display="inline" fill="none" stroke="#808285" stroke-width="2" stroke-miterlimit="10" x1="145.157" y1="84.405" x2="145.157" y2="123.554"/>
</g>
<g id="analysis" display="none">
	<g display="inline">
		<g>
			<path fill="none" stroke="#808285" stroke-width="2" stroke-miterlimit="10" d="M170.275,144.183
				c0,13.405-10.873,24.265-24.275,24.265s-24.27-10.859-24.27-24.265c0-13.407,10.867-24.271,24.27-24.271
				S170.275,130.775,170.275,144.183z"/>
			
				<rect x="120.776" y="118.959" transform="matrix(0.7071 -0.7071 0.7071 0.7071 -59.1904 145.4698)" fill="none" stroke="#808285" stroke-width="2" stroke-miterlimit="10" width="50.446" height="50.447"/>
		</g>
		<g>
			<g>
				<g>
					<g>
						<g>
							<g>
								
									<rect x="172.063" y="160.619" transform="matrix(-0.7055 -0.7088 0.7088 -0.7055 179.7644 399.7787)" fill="#808285" width="1.777" height="3.834"/>
								
									<rect x="168.017" y="164.647" transform="matrix(-0.7055 -0.7088 0.7088 -0.7055 170.0079 403.7798)" fill="#808285" width="1.777" height="3.833"/>
								
									<rect x="163.97" y="168.674" transform="matrix(-0.7055 -0.7088 0.7088 -0.7055 160.2526 407.7803)" fill="#808285" width="1.777" height="3.834"/>
								
									<rect x="159.923" y="172.703" transform="matrix(-0.7055 -0.7088 0.7088 -0.7055 150.4952 411.781)" fill="#808285" width="1.777" height="3.832"/>
								
									<rect x="155.876" y="176.729" transform="matrix(-0.7055 -0.7088 0.7088 -0.7055 140.7399 415.7816)" fill="#808285" width="1.777" height="3.835"/>
								
									<rect x="151.829" y="180.759" transform="matrix(-0.7055 -0.7088 0.7088 -0.7055 130.9819 419.784)" fill="#808285" width="1.777" height="3.833"/>
								
									<rect x="147.783" y="184.785" transform="matrix(-0.7055 -0.7088 0.7088 -0.7055 121.2281 423.7832)" fill="#808285" width="1.777" height="3.833"/>
							</g>
						</g>
						<g>
							<g>
								
									<rect x="143.735" y="188.813" transform="matrix(-0.7055 -0.7088 0.7088 -0.7055 111.4695 427.7844)" fill="#808285" width="1.777" height="3.833"/>
								
									<rect x="139.689" y="192.841" transform="matrix(-0.7055 -0.7088 0.7088 -0.7055 101.7138 431.7848)" fill="#808285" width="1.777" height="3.834"/>
								
									<rect x="135.642" y="196.868" transform="matrix(-0.7053 -0.7089 0.7089 -0.7053 91.9123 435.7767)" fill="#808285" width="1.777" height="3.834"/>
								
									<rect x="131.595" y="200.896" transform="matrix(-0.7055 -0.7088 0.7088 -0.7055 82.2003 439.7868)" fill="#808285" width="1.777" height="3.833"/>
								
									<rect x="127.548" y="204.924" transform="matrix(-0.7055 -0.7088 0.7088 -0.7055 72.4446 443.7872)" fill="#808285" width="1.777" height="3.834"/>
								
									<rect x="123.501" y="208.952" transform="matrix(-0.7055 -0.7088 0.7088 -0.7055 62.6869 447.7887)" fill="#808285" width="1.777" height="3.834"/>
								
									<rect x="119.455" y="212.979" transform="matrix(-0.7055 -0.7088 0.7088 -0.7055 52.9324 451.7886)" fill="#808285" width="1.777" height="3.832"/>
							</g>
						</g>
					</g>
				</g>
			</g>
			<g>
				<g>
					<g>
						<g>
							<g>
								
									<rect x="118.184" y="160.25" transform="matrix(-0.7088 0.7055 -0.7055 -0.7088 317.8708 193.1102)" fill="#808285" width="1.777" height="3.843"/>
								
									<rect x="122.222" y="164.306" transform="matrix(-0.7088 0.7055 -0.7055 -0.7088 327.6323 197.1935)" fill="#808285" width="1.777" height="3.843"/>
								
									<rect x="126.259" y="168.363" transform="matrix(-0.7088 0.7055 -0.7055 -0.7088 337.3933 201.2769)" fill="#808285" width="1.777" height="3.843"/>
								
									<rect x="130.298" y="172.421" transform="matrix(-0.7088 0.7055 -0.7055 -0.7088 347.1563 205.3615)" fill="#808285" width="1.777" height="3.843"/>
								
									<rect x="134.336" y="176.477" transform="matrix(-0.7088 0.7055 -0.7055 -0.7088 356.9174 209.444)" fill="#808285" width="1.777" height="3.844"/>
								
									<rect x="138.374" y="180.535" transform="matrix(-0.7088 0.7055 -0.7055 -0.7088 366.6807 213.5294)" fill="#808285" width="1.777" height="3.843"/>
								
									<rect x="142.411" y="184.591" transform="matrix(-0.7088 0.7055 -0.7055 -0.7088 376.4402 217.6115)" fill="#808285" width="1.777" height="3.843"/>
							</g>
						</g>
						<g>
							<g>
								
									<rect x="146.45" y="188.648" transform="matrix(-0.7088 0.7055 -0.7055 -0.7088 386.2037 221.696)" fill="#808285" width="1.777" height="3.844"/>
								
									<rect x="150.487" y="192.705" transform="matrix(-0.7088 0.7055 -0.7055 -0.7088 395.9647 225.7794)" fill="#808285" width="1.777" height="3.843"/>
								
									<rect x="154.525" y="196.761" transform="matrix(-0.7088 0.7055 -0.7055 -0.7088 405.7257 229.8629)" fill="#808285" width="1.777" height="3.844"/>
								
									<rect x="158.563" y="200.819" transform="matrix(-0.7088 0.7055 -0.7055 -0.7088 415.4891 233.9473)" fill="#808285" width="1.777" height="3.843"/>
								
									<rect x="162.601" y="204.875" transform="matrix(-0.7088 0.7055 -0.7055 -0.7088 425.2498 238.0299)" fill="#808285" width="1.777" height="3.844"/>
								
									<rect x="166.64" y="208.934" transform="matrix(-0.7088 0.7055 -0.7055 -0.7088 435.0136 242.1152)" fill="#808285" width="1.777" height="3.843"/>
								
									<rect x="170.677" y="212.989" transform="matrix(-0.7088 0.7055 -0.7055 -0.7088 444.7731 246.1973)" fill="#808285" width="1.777" height="3.843"/>
							</g>
						</g>
					</g>
				</g>
			</g>
		</g>
		<g>
			<g>
				<g>
					<g>
						<g>
							<g>
								
									<rect x="172.004" y="71.203" transform="matrix(-0.7077 -0.7066 0.7066 -0.7077 243.5765 247.025)" fill="#808285" width="1.777" height="3.837"/>
								
									<rect x="167.966" y="75.246" transform="matrix(-0.7077 -0.7066 0.7066 -0.7077 233.8241 251.0763)" fill="#808285" width="1.777" height="3.837"/>
								
									<rect x="163.929" y="79.29" transform="matrix(-0.7077 -0.7066 0.7066 -0.7077 224.0733 255.1283)" fill="#808285" width="1.777" height="3.837"/>
								
									<rect x="159.89" y="83.334" transform="matrix(-0.7077 -0.7066 0.7066 -0.7077 214.3197 259.18)" fill="#808285" width="1.777" height="3.836"/>
								
									<rect x="155.852" y="87.376" transform="matrix(-0.7077 -0.7066 0.7066 -0.7077 204.5683 263.2312)" fill="#808285" width="1.777" height="3.837"/>
								
									<rect x="151.814" y="91.421" transform="matrix(-0.7074 -0.7068 0.7068 -0.7074 194.7468 267.3002)" fill="#808285" width="1.777" height="3.837"/>
								
									<rect x="147.777" y="95.463" transform="matrix(-0.7072 -0.707 0.707 -0.7072 184.9629 271.3553)" fill="#808285" width="1.777" height="3.837"/>
							</g>
						</g>
						<g>
							<g>
								
									<rect x="143.738" y="99.507" transform="matrix(-0.7077 -0.7066 0.7066 -0.7077 175.3103 275.3867)" fill="#808285" width="1.777" height="3.837"/>
								
									<rect x="139.7" y="103.55" transform="matrix(-0.7077 -0.7066 0.7066 -0.7077 165.5583 279.4382)" fill="#808285" width="1.777" height="3.837"/>
								
									<rect x="135.663" y="107.593" transform="matrix(-0.7075 -0.7067 0.7067 -0.7075 155.7734 283.4937)" fill="#808285" width="1.777" height="3.837"/>
								
									<rect x="131.624" y="111.637" transform="matrix(-0.7077 -0.7066 0.7066 -0.7077 146.0535 287.5417)" fill="#808285" width="1.777" height="3.836"/>
								
									<rect x="127.587" y="115.68" transform="matrix(-0.7075 -0.7067 0.7067 -0.7075 136.2684 291.5945)" fill="#808285" width="1.777" height="3.837"/>
								
									<rect x="123.548" y="119.724" transform="matrix(-0.7077 -0.7066 0.7066 -0.7077 126.5482 295.6455)" fill="#808285" width="1.777" height="3.837"/>
								
									<rect x="119.511" y="123.767" transform="matrix(-0.7075 -0.7067 0.7067 -0.7075 116.7643 299.6951)" fill="#808285" width="1.778" height="3.837"/>
							</g>
						</g>
					</g>
				</g>
			</g>
			<g>
				<g>
					<g>
						<g>
							<g>
								
									<rect x="118.219" y="71.239" transform="matrix(-0.7081 0.7061 -0.7061 -0.7081 255.1031 40.848)" fill="#808285" width="1.778" height="3.835"/>
								
									<rect x="122.252" y="75.282" transform="matrix(-0.7081 0.7061 -0.7061 -0.7081 264.8463 44.9064)" fill="#808285" width="1.777" height="3.834"/>
								
									<rect x="126.283" y="79.325" transform="matrix(-0.7081 0.7061 -0.7061 -0.7081 274.5879 48.9655)" fill="#808285" width="1.778" height="3.835"/>
								
									<rect x="130.317" y="83.369" transform="matrix(-0.7081 0.7061 -0.7061 -0.7081 284.3323 53.0243)" fill="#808285" width="1.778" height="3.834"/>
								
									<rect x="134.349" y="87.412" transform="matrix(-0.7079 0.7063 -0.7063 -0.7079 294.0685 57.0522)" fill="#808285" width="1.777" height="3.834"/>
								
									<rect x="138.382" y="91.456" transform="matrix(-0.7082 0.706 -0.706 -0.7082 303.825 61.1742)" fill="#808285" width="1.777" height="3.834"/>
								
									<rect x="142.414" y="95.499" transform="matrix(-0.7081 0.7061 -0.7061 -0.7081 313.56 65.2005)" fill="#808285" width="1.777" height="3.834"/>
							</g>
						</g>
						<g>
							<g>
								
									<rect x="146.447" y="99.543" transform="matrix(-0.7078 0.7064 -0.7064 -0.7078 323.2924 69.1912)" fill="#808285" width="1.777" height="3.834"/>
								
									<rect x="150.48" y="103.586" transform="matrix(-0.7079 0.7063 -0.7063 -0.7079 333.0411 73.2831)" fill="#808285" width="1.777" height="3.834"/>
								
									<rect x="154.512" y="107.629" transform="matrix(-0.7078 0.7064 -0.7064 -0.7078 342.7773 77.3043)" fill="#808285" width="1.777" height="3.834"/>
								
									<rect x="158.544" y="111.673" transform="matrix(-0.7081 0.7061 -0.7061 -0.7081 352.5334 81.4362)" fill="#808285" width="1.778" height="3.834"/>
								
									<rect x="162.576" y="115.716" transform="matrix(-0.7081 0.7061 -0.7061 -0.7081 362.275 85.4953)" fill="#808285" width="1.778" height="3.835"/>
								
									<rect x="166.61" y="119.76" transform="matrix(-0.7082 0.706 -0.706 -0.7082 372.0265 89.5937)" fill="#808285" width="1.777" height="3.834"/>
								
									<rect x="170.642" y="123.803" transform="matrix(-0.7079 0.7063 -0.7063 -0.7079 381.7552 93.5714)" fill="#808285" width="1.777" height="3.834"/>
							</g>
						</g>
					</g>
				</g>
			</g>
		</g>
		
			<line fill="none" stroke="#808285" stroke-width="2" stroke-miterlimit="10" x1="88.846" y1="144.227" x2="110.172" y2="144.227"/>
		
			<line fill="none" stroke="#808285" stroke-width="2" stroke-miterlimit="10" x1="179.086" y1="144.227" x2="200.414" y2="144.227"/>
		<circle fill="#808285" cx="200.879" cy="144.227" r="4.943"/>
		<circle fill="#808285" cx="89.352" cy="144.227" r="4.943"/>
	</g>
</g>
</svg>
